Coordinates
nRows=8
nColumns=34

# SIMM Motion File Header:
name Coordinates
datacolumns 34
datarows 8
otherdata 1
range 0.15000000 0.15700000

Units are S.I. units (second, meters, Newtons, ...)
Angles are in degrees.

endheader
time	pelvis_tz	pelvis_tx	pelvis_ty	pelvis_tilt	pelvis_list	pelvis_rotation	hip_flexion_r	hip_adduction_r	hip_rotation_r	knee_r_tx	knee_r_ty	knee_angle_r	tib_pat_r_tx	tib_pat_r_ty	tib_pat_r_r1	ankle_angle_r	subtalar_angle_r	mtp_angle_r	hip_flexion_l	hip_adduction_l	hip_rotation_l	knee_l_tx	knee_l_ty	knee_angle_l	tib_pat_l_tx	tib_pat_l_ty	tib_pat_l_r1	ankle_angle_l	subtalar_angle_l	mtp_angle_l	lumbar_extension	lumbar_bending	lumbar_rotation
      0.15000000	     -0.26463439	     -0.00164147	      0.91387142	     -2.84318106	     -2.06434089	     -0.86191583	     15.63632130	      4.03001009	     13.21667598	     -0.00326068	     -0.41392830	     -9.87047497	      0.04530027	     -0.02086885	      9.05559196	      0.23580582	      0.00000000	      0.00000000	     -3.71573465	      2.34821232	      6.17009997	      0.00272845	     -0.41922787	    -44.02465000	      0.03936485	     -0.01959731	     16.75358329	    -16.81554620	      0.00000000	      0.00000000	      0.13785584	      7.93585997	     -3.42075766
      0.15100000	     -0.26457161	     -0.00058288	      0.91401600	     -2.84011512	     -2.06159092	     -0.86485676	     15.54199675	      4.03036791	     13.22688093	     -0.00326622	     -0.41392572	     -9.84179755	      0.04530468	     -0.02087023	      9.03678540	      0.29432514	     -0.00000000	      0.00000000	     -3.54789556	      2.32696411	      6.10476015	      0.00276236	     -0.41928958	    -44.29785614	      0.03930511	     -0.01958789	     16.77100925	    -16.73398783	      0.00000000	      0.00000000	      0.12741211	      7.92920434	     -3.38338331
      0.15200000	     -0.26450918	      0.00047444	      0.91415939	     -2.83704414	     -2.05882222	     -0.86781199	     15.44773236	      4.03068618	     13.23709077	     -0.00327176	     -0.41392313	     -9.81309356	      0.04530910	     -0.02087161	      9.01792216	      0.35312948	     -0.00000000	      0.00000000	     -3.37999908	      2.30574131	      6.03943051	      0.00279610	     -0.41935153	    -44.57096697	      0.03924524	     -0.01957851	     16.78816804	    -16.65236902	      0.00000000	      0.00000000	      0.11701069	      7.92250269	     -3.34601996
      0.15300000	     -0.26444710	      0.00153049	      0.91430162	     -2.83396703	     -2.05602167	     -0.87079584	     15.35353391	      4.03094633	     13.24733610	     -0.00327729	     -0.41392054	     -9.78437775	      0.04531353	     -0.02087299	      8.99901180	      0.41183438	     -0.00000000	      0.00000000	     -3.21205828	      2.28455972	      5.97411519	      0.00282964	     -0.41941370	    -44.84391879	      0.03918527	     -0.01956916	     16.80505802	    -16.57065490	      0.00000000	      0.00000000	      0.10664571	      7.91573720	     -3.30865013
      0.15400000	     -0.26438535	      0.00258526	      0.91444270	     -2.83088240	     -2.05317112	     -0.87381704	     15.25939911	      4.03113305	     13.25763163	     -0.00328282	     -0.41391795	     -9.75565002	      0.04531796	     -0.02087438	      8.98005418	      0.47045639	     -0.00000000	      0.00000000	     -3.04408570	      2.26343511	      5.90882219	      0.00286298	     -0.41947608	    -45.11664226	      0.03912521	     -0.01955985	     16.82167745	    -16.48879822	      0.00000000	      0.00000000	      0.09631200	      7.90888164	     -3.27126142
      0.15500000	     -0.26432389	      0.00363876	      0.91458264	     -2.82778881	     -2.05025212	     -0.87688415	     15.16532622	      4.03123294	     13.26799195	     -0.00328834	     -0.41391536	     -9.72690982	      0.04532240	     -0.02087577	      8.96104880	      0.52901568	     -0.00000000	      0.00000000	     -2.87609341	      2.24238181	      5.84355983	      0.00289610	     -0.41953864	    -45.38906802	      0.03906508	     -0.01955058	     16.83802484	    -16.40675177	      0.00000000	      0.00000000	      0.08600479	      7.90191096	     -3.23384087
      0.15600000	     -0.26426269	      0.00469098	      0.91472147	     -2.82468478	     -2.04724607	     -0.88000569	     15.07131394	      4.03123392	     13.27843165	     -0.00329385	     -0.41391278	     -9.69815634	      0.04532685	     -0.02087717	      8.94199506	      0.58753211	     -0.00000000	      0.00000000	     -2.70809314	      2.22141309	      5.77833659	      0.00292900	     -0.41960137	    -45.66112672	      0.03900489	     -0.01954135	     16.85409894	    -16.32446858	      0.00000000	      0.00000000	      0.07571959	      7.89480100	     -3.19637516
      0.15700000	     -0.26420173	      0.00574192	      0.91485920	     -2.82156880	     -2.04413432	     -0.88319010	     14.97736130	      4.03112463	     13.28896529	     -0.00329935	     -0.41391019	     -9.66938867	      0.04533130	     -0.02087856	      8.92289222	      0.64602522	     -0.00000000	      0.00000000	     -2.54009633	      2.20054162	      5.71316103	      0.00296165	     -0.41966425	    -45.93274912	      0.03894466	     -0.01953217	     16.86989874	    -16.24190198	      0.00000000	      0.00000000	      0.06545211	      7.88752814	     -3.15885082
